HIERARCHY
ROOT hip
{
	OFFSET 0.000000 103.560692 0.219151
	CHANNELS 6 Xposition Yposition Zposition Zrotation Xrotation Yrotation
	JOINT pelvis
	{
		OFFSET 0.000000 1.955040 1.591925
		CHANNELS 3 Zrotation Xrotation Yrotation
		JOINT lThigh
		{
			OFFSET 8.341582 -7.629402 -0.646910
			CHANNELS 3 Zrotation Xrotation Yrotation
			JOINT lShin
			{
				OFFSET 2.185763 -45.093132 -0.705710
				CHANNELS 3 Zrotation Xrotation Yrotation
				JOINT lFoot
				{
					OFFSET 0.730976 -46.379768 -2.264282
					CHANNELS 3 Zrotation Xrotation Yrotation
					JOINT lToe
					{
						OFFSET 2.797621 -4.200020 10.742415
						CHANNELS 3 Zrotation Xrotation Yrotation
						JOINT lBigToe
						{
							OFFSET -2.433708 -0.269072 1.841711
							CHANNELS 3 Zrotation Xrotation Yrotation
							End Site
							{
								OFFSET -10.527346 -33.657166 -1.340707
							}
						}
					}
				}
			}
		}
		JOINT rThigh
		{
			OFFSET -8.341582 -7.629402 -0.646910
			CHANNELS 3 Zrotation Xrotation Yrotation
			JOINT rShin
			{
				OFFSET -2.185763 -45.093132 -0.705710
				CHANNELS 3 Zrotation Xrotation Yrotation
				JOINT rFoot
				{
					OFFSET -0.730976 -46.379768 -2.264282
					CHANNELS 3 Zrotation Xrotation Yrotation
					JOINT rToe
					{
						OFFSET -2.797621 -4.200019 10.742415
						CHANNELS 3 Zrotation Xrotation Yrotation
						JOINT rBigToe
						{
							OFFSET 2.433708 -0.269072 1.841711
							CHANNELS 3 Zrotation Xrotation Yrotation
							End Site
							{
								OFFSET 0.000000 24.298409 -0.425647
							}
						}
					}
				}
			}
		}
	}
	JOINT abdomen
	{
		OFFSET 0.000000 1.841293 -3.551421
		CHANNELS 3 Zrotation Xrotation Yrotation
		JOINT abdomen2
		{
			OFFSET 0.000000 5.439911 3.419600
			CHANNELS 3 Zrotation Xrotation Yrotation
			JOINT chest
			{
				OFFSET 0.000000 14.715073 -2.918270
				CHANNELS 3 Zrotation Xrotation Yrotation
				JOINT neck
				{
					OFFSET 0.000000 26.294655 -1.248052
					CHANNELS 3 Zrotation Xrotation Yrotation
					JOINT head
					{
						OFFSET 0.000000 8.807068 1.063695
						CHANNELS 3 Zrotation Xrotation Yrotation
						JOINT rEye
						{
							OFFSET -3.030866 6.632080 7.702687
							CHANNELS 3 Zrotation Xrotation Yrotation
							End Site
							{
								OFFSET 2.969555 -11.022598 8.626689
							}
						}
						JOINT lEye
						{
							OFFSET 3.030866 6.632080 7.702687
							CHANNELS 3 Zrotation Xrotation Yrotation
							End Site
							{
								OFFSET 0.000000 -15.881760 10.104412
							}
						}
						JOINT upperJaw
						{
							OFFSET 0.000000 1.922699 2.891887
							CHANNELS 3 Zrotation Xrotation Yrotation
							End Site
							{
								OFFSET 0.000000 -19.386169 10.230839
							}
						}
						JOINT lowerJaw
						{
							OFFSET 0.000000 1.857620 2.686640
							CHANNELS 3 Zrotation Xrotation Yrotation
							JOINT tongueBase
							{
								OFFSET 0.000000 -3.019135 2.746916
								CHANNELS 3 Zrotation Xrotation Yrotation
								JOINT tongue01
								{
									OFFSET 0.000000 0.664124 0.223355
									CHANNELS 3 Zrotation Xrotation Yrotation
									JOINT tongue02
									{
										OFFSET 0.000000 0.339737 0.715627
										CHANNELS 3 Zrotation Xrotation Yrotation
										JOINT tongue03
										{
											OFFSET 0.000000 0.123444 0.730634
											CHANNELS 3 Zrotation Xrotation Yrotation
											JOINT tongue04
											{
												OFFSET 0.000000 0.017212 0.737415
												CHANNELS 3 Zrotation Xrotation Yrotation
												JOINT tongue05
												{
													OFFSET 0.000000 -0.021011 0.632440
													CHANNELS 3 Zrotation Xrotation Yrotation
													JOINT tongueTip
													{
														OFFSET 0.000000 -0.014404 0.601796
														CHANNELS 3 Zrotation Xrotation Yrotation
														End Site
														{
															OFFSET -14.139406 -2.625778 0.472826
														}
													}
												}
											}
										}
									}
								}
							}
						}
					}
				}
				JOINT rCollar
				{
					OFFSET -2.109295 21.452370 3.768136
					CHANNELS 3 Zrotation Xrotation Yrotation
					JOINT rShldr
					{
						OFFSET -11.491621 -2.568573 -4.940255
						CHANNELS 3 Zrotation Xrotation Yrotation
						JOINT rForeArm
						{
							OFFSET -28.789030 -0.213806 2.098380
							CHANNELS 3 Zrotation Xrotation Yrotation
							JOINT rHand
							{
								OFFSET -22.260895 -0.869583 10.391586
								CHANNELS 3 Zrotation Xrotation Yrotation
								JOINT rThumb1
								{
									OFFSET -0.628075 0.137405 2.362409
									CHANNELS 3 Zrotation Xrotation Yrotation
									JOINT rThumb2
									{
										OFFSET 0.085205 -0.600235 3.826079
										CHANNELS 3 Zrotation Xrotation Yrotation
										JOINT rThumb3
										{
											OFFSET -1.255478 -0.879211 2.439162
											CHANNELS 3 Zrotation Xrotation Yrotation
											End Site
											{
												OFFSET -2.963715 0.538574 4.059553
											}
										}
									}
								}
								JOINT rCarpal1
								{
									OFFSET -0.855530 1.026047 1.621985
									CHANNELS 3 Zrotation Xrotation Yrotation
									JOINT rIndex1
									{
										OFFSET -3.951324 0.390884 3.873290
										CHANNELS 3 Zrotation Xrotation Yrotation
										JOINT rIndex2
										{
											OFFSET -3.071884 -1.259598 2.506104
											CHANNELS 3 Zrotation Xrotation Yrotation
											JOINT rIndex3
											{
												OFFSET -1.394112 -1.446640 1.203302
												CHANNELS 3 Zrotation Xrotation Yrotation
												End Site
												{
													OFFSET -3.392448 -1.258026 0.533405
												}
											}
										}
									}
									JOINT rMid1
									{
										OFFSET -5.422974 0.107910 2.002650
										CHANNELS 3 Zrotation Xrotation Yrotation
										JOINT rMid2
										{
											OFFSET -3.599533 -1.323776 2.090647
											CHANNELS 3 Zrotation Xrotation Yrotation
											JOINT rMid3
											{
												OFFSET -1.360191 -1.598495 1.068055
												CHANNELS 3 Zrotation Xrotation Yrotation
												End Site
												{
													OFFSET -4.087769 -0.460876 0.069540
												}
											}
										}
									}
								}
								JOINT rCarpal2
								{
									OFFSET -1.942749 0.556229 -0.337217
									CHANNELS 3 Zrotation Xrotation Yrotation
									JOINT rRing1
									{
										OFFSET -4.762787 -0.121170 2.349089
										CHANNELS 3 Zrotation Xrotation Yrotation
										JOINT rRing2
										{
											OFFSET -3.380348 -1.337097 1.356700
											CHANNELS 3 Zrotation Xrotation Yrotation
											JOINT rRing3
											{
												OFFSET -1.430290 -1.499649 0.914224
												CHANNELS 3 Zrotation Xrotation Yrotation
												End Site
												{
													OFFSET -1.783272 -2.215851 -0.391895
												}
											}
										}
									}
									JOINT rPinky1
									{
										OFFSET -5.232559 -1.313721 0.336493
										CHANNELS 3 Zrotation Xrotation Yrotation
										JOINT rPinky2
										{
											OFFSET -2.217606 -1.389603 0.800693
											CHANNELS 3 Zrotation Xrotation Yrotation
											JOINT rPinky3
											{
												OFFSET -0.886887 -1.462280 0.774199
												CHANNELS 3 Zrotation Xrotation Yrotation
												End Site
												{
													OFFSET 14.139406 -2.625778 0.472826
												}
											}
										}
									}
								}
							}
						}
					}
				}
				JOINT lCollar
				{
					OFFSET 2.109295 21.452370 3.768136
					CHANNELS 3 Zrotation Xrotation Yrotation
					JOINT lShldr
					{
						OFFSET 11.491621 -2.568573 -4.940255
						CHANNELS 3 Zrotation Xrotation Yrotation
						JOINT lForeArm
						{
							OFFSET 28.789030 -0.213806 2.098380
							CHANNELS 3 Zrotation Xrotation Yrotation
							JOINT lHand
							{
								OFFSET 22.260895 -0.869583 10.391586
								CHANNELS 3 Zrotation Xrotation Yrotation
								JOINT lThumb1
								{
									OFFSET 0.628075 0.137405 2.362409
									CHANNELS 3 Zrotation Xrotation Yrotation
									JOINT lThumb2
									{
										OFFSET -0.085205 -0.600235 3.826079
										CHANNELS 3 Zrotation Xrotation Yrotation
										JOINT lThumb3
										{
											OFFSET 1.255478 -0.879211 2.439162
											CHANNELS 3 Zrotation Xrotation Yrotation
											End Site
											{
												OFFSET 2.963715 0.538574 4.059553
											}
										}
									}
								}
								JOINT lCarpal1
								{
									OFFSET 0.855530 1.026047 1.621985
									CHANNELS 3 Zrotation Xrotation Yrotation
									JOINT lIndex1
									{
										OFFSET 3.951324 0.390884 3.873290
										CHANNELS 3 Zrotation Xrotation Yrotation
										JOINT lIndex2
										{
											OFFSET 3.071884 -1.259598 2.506104
											CHANNELS 3 Zrotation Xrotation Yrotation
											JOINT lIndex3
											{
												OFFSET 1.394112 -1.446640 1.203302
												CHANNELS 3 Zrotation Xrotation Yrotation
												End Site
												{
													OFFSET 3.392448 -1.258026 0.533405
												}
											}
										}
									}
									JOINT lMid1
									{
										OFFSET 5.422974 0.107910 2.002650
										CHANNELS 3 Zrotation Xrotation Yrotation
										JOINT lMid2
										{
											OFFSET 3.599533 -1.323776 2.090647
											CHANNELS 3 Zrotation Xrotation Yrotation
											JOINT lMid3
											{
												OFFSET 1.360191 -1.598495 1.068055
												CHANNELS 3 Zrotation Xrotation Yrotation
												End Site
												{
													OFFSET 4.087769 -0.460876 0.069540
												}
											}
										}
									}
								}
								JOINT lCarpal2
								{
									OFFSET 1.942749 0.556229 -0.337217
									CHANNELS 3 Zrotation Xrotation Yrotation
									JOINT lRing1
									{
										OFFSET 4.762787 -0.121170 2.349089
										CHANNELS 3 Zrotation Xrotation Yrotation
										JOINT lRing2
										{
											OFFSET 3.380348 -1.337097 1.356700
											CHANNELS 3 Zrotation Xrotation Yrotation
											JOINT lRing3
											{
												OFFSET 1.430290 -1.499649 0.914224
												CHANNELS 3 Zrotation Xrotation Yrotation
												End Site
												{
													OFFSET 1.783272 -2.215851 -0.391895
												}
											}
										}
									}
									JOINT lPinky1
									{
										OFFSET 5.232559 -1.313721 0.336493
										CHANNELS 3 Zrotation Xrotation Yrotation
										JOINT lPinky2
										{
											OFFSET 2.217606 -1.389603 0.800693
											CHANNELS 3 Zrotation Xrotation Yrotation
											JOINT lPinky3
											{
												OFFSET 0.886887 -1.462280 0.774199
												CHANNELS 3 Zrotation Xrotation Yrotation
												End Site
												{
													OFFSET -10.295957 -17.050110 17.461308
												}
											}
										}
									}
								}
							}
						}
					}
				}
				JOINT rPectoral
				{
					OFFSET -6.358840 6.360771 6.369920
					CHANNELS 3 Zrotation Xrotation Yrotation
					End Site
					{
						OFFSET 10.295957 -17.050110 17.461308
					}
				}
				JOINT lPectoral
				{
					OFFSET 6.358840 6.360771 6.369920
					CHANNELS 3 Zrotation Xrotation Yrotation
					End Site
					{
						OFFSET 10.295957 -17.050110 17.461308
					}
				}
			}
		}
	}
}
MOTION
Frames:	4
Frame Time:	0.0333333
-12.287875 0.273376 3.317073 -2.959194 3.315955 11.301797 0.000000 0.000000 0.000000 11.219359 -12.459414 -8.650576 -3.553488 15.439067 -16.535036 6.195903 -22.201550 10.479235 3.880671 -10.743246 1.654822 0.000000 0.000000 0.000000 -7.942508 1.797843 6.672683 5.248444 -3.237646 17.850145 -4.265009 -17.555458 -7.485781 -6.571467 -8.082637 -2.195654 0.000000 0.000000 0.000000 -5.041952 -2.275104 2.108428 0.000000 0.000000 0.000000 1.910450 4.792557 1.177395 5.137792 -16.390671 -7.394889 -1.660131 11.493633 -6.419172 0.000000 0.000000 0.000000 0.000000 0.000000 0.000000 0.000000 0.000000 0.000000 0.000000 0.000000 0.000000 0.000000 0.000000 0.000000 0.002091 18.987074 -0.000350 0.000000 16.984816 0.000000 0.000000 5.997237 0.000000 -0.003221 -13.991744 -0.001883 0.000000 0.000000 0.000000 0.000000 0.000000 0.000000 7.956429 -0.429964 -6.207529 -2.832389 59.688206 41.762157 -9.626307 13.340719 44.971783 -13.029763 -15.462776 37.813705 -11.245119 -4.869625 13.679776 -1.633875 -15.019429 22.619614 5.316806 1.296292 30.678932 0.000000 0.000000 0.000000 -27.092932 -14.672052 -20.603046 -5.700453 -4.600905 -0.065375 -1.131917 0.273560 -0.883726 -21.663523 -8.987679 -10.537619 -5.466834 0.172220 -4.274006 1.861500 4.995881 -1.570891 0.000000 0.000000 0.000000 -26.527855 -12.105064 -9.471452 -0.630930 3.654214 -6.704939 6.937159 8.541333 -0.399435 -43.769783 -22.807724 -23.953394 1.213228 6.711719 -7.067034 18.354370 9.834890 1.922146 -17.433132 0.399382 1.820207 -41.788807 32.640575 -12.516952 0.425264 -8.843666 12.650314 -5.300601 3.499727 -5.641314 20.264267 16.012875 11.237601 5.406654 -14.233193 -9.902623 16.498470 20.810619 -16.029562 0.000000 0.000000 0.000000 10.482573 -8.511680 17.446299 7.420596 -4.485900 1.787232 12.482223 -9.800011 2.340300 8.647410 -3.307333 7.176097 0.594762 3.049653 3.815826 -0.477300 4.595424 2.175196 0.000000 0.000000 0.000000 4.019570 -6.930471 -0.573964 -16.213823 9.629586 7.269476 -1.274504 8.359025 3.952809 19.074804 -24.508717 13.624231 -47.926094 21.733528 10.613285 -34.346699 26.767237 1.864820 0.205023 -0.010536 -0.602067 -0.083360 -0.004023 0.244760 
-13.720717 0.172662 3.130534 -3.476553 3.111830 12.687289 0.000000 0.000000 0.000000 13.359763 -14.580977 -6.698567 -3.996076 18.156418 -14.003093 3.618016 -21.508196 9.044003 3.818944 -12.157591 1.530663 0.000000 0.000000 0.000000 -6.488578 1.935769 6.304679 5.044695 -3.261732 17.123457 -5.044892 -17.841724 -7.926632 -6.550872 -7.591300 -2.259828 0.000000 0.000000 0.000000 -5.403497 -1.680648 1.729819 0.000000 0.000000 0.000000 2.737568 4.674898 0.775736 5.173995 -16.783697 -7.493867 -1.657360 11.465478 -6.512614 0.000000 0.000000 0.000000 0.000000 0.000000 0.000000 0.000000 0.000000 0.000000 0.000000 0.000000 0.000000 0.000000 0.000000 0.000000 0.002091 18.987074 -0.000350 0.000000 16.984816 0.000000 0.000000 5.997237 0.000000 -0.003221 -13.991744 -0.001883 0.000000 0.000000 0.000000 0.000000 0.000000 0.000000 7.856290 -0.430972 -6.238963 -6.198831 60.576469 45.204964 -8.036109 12.008547 47.036083 -14.077346 -16.312511 37.853119 -10.866038 -6.630981 15.239540 -1.567048 -15.027696 22.845083 6.514855 0.386511 31.224483 0.000000 0.000000 0.000000 -27.872932 -15.231467 -20.543413 -5.700453 -4.600905 -0.065375 -1.131917 0.273560 -0.883726 -22.313778 -9.255161 -10.734056 -5.559982 0.110174 -4.284014 1.861500 4.995881 -1.570891 0.000000 0.000000 0.000000 -27.317104 -12.110944 -9.991190 -0.734413 3.600241 -6.697927 6.846869 8.488311 -0.404193 -44.576050 -22.354427 -24.683731 1.376006 6.769868 -7.066604 18.177704 9.721132 1.900950 -17.489418 0.441301 1.658015 -41.921753 32.532070 -12.961699 0.330271 -9.455561 12.677259 -5.565068 3.642441 -5.414818 20.264267 16.012875 11.237601 5.406654 -14.233193 -9.902623 16.498470 20.810619 -16.029562 0.000000 0.000000 0.000000 10.482573 -8.511680 17.446299 7.429943 -4.491241 1.786533 12.606201 -9.914589 2.369644 8.647410 -3.307333 7.176097 0.594762 3.049653 3.815826 -0.477300 4.595424 2.175196 0.000000 0.000000 0.000000 4.079657 -6.949969 -0.564993 -16.305584 9.666411 7.277579 -1.274504 8.359025 3.952809 19.076389 -24.508549 13.624583 -48.256214 21.828529 10.674179 -34.371059 26.782373 1.861031 0.205904 -0.010586 -0.604655 -0.078245 -0.003766 0.229739 
-15.554169 0.076046 2.924026 -4.632895 3.048033 14.070498 0.000000 0.000000 0.000000 17.693672 -17.034363 0.135801 -5.596150 21.054789 -6.582559 -0.228595 -19.331648 6.425642 3.964112 -13.458935 1.355412 0.000000 0.000000 0.000000 -4.230753 1.577705 5.878468 4.949200 -3.242155 16.306097 -5.891324 -17.804943 -8.174092 -6.489232 -7.172367 -2.309761 0.000000 0.000000 0.000000 -4.859860 -1.588702 1.673199 0.000000 0.000000 0.000000 2.668182 4.859141 0.761370 6.273186 -17.164417 -8.200196 -2.325763 11.070717 -6.820365 0.000000 0.000000 0.000000 0.000000 0.000000 0.000000 0.000000 0.000000 0.000000 0.000000 0.000000 0.000000 0.000000 0.000000 0.000000 0.002091 18.987074 -0.000350 0.000000 16.984816 0.000000 0.000000 5.997237 0.000000 -0.003221 -13.991744 -0.001883 0.000000 0.000000 0.000000 0.000000 0.000000 0.000000 8.220365 -0.504744 -6.585616 -7.688898 60.867088 46.519184 -5.738064 11.230995 48.003525 -13.835998 -15.969746 36.978542 -10.377954 -8.007097 16.689426 -1.525802 -15.033131 22.983109 7.430369 -0.295469 31.633509 0.000000 0.000000 0.000000 -28.468634 -15.663091 -20.499945 -5.700453 -4.600905 -0.065375 -1.131917 0.273560 -0.883726 -22.313778 -9.255161 -10.734056 -5.559982 0.110174 -4.284014 1.861500 4.995881 -1.570891 0.000000 0.000000 0.000000 -27.919943 -12.110482 -10.390511 -0.797727 3.566823 -6.690764 6.782679 8.448439 -0.409286 -45.172943 -21.999102 -25.240755 1.503330 6.817774 -7.062870 18.048359 9.639751 1.889469 -17.302584 0.504385 1.391003 -41.962624 32.081612 -13.708579 0.020894 -8.827412 13.007804 -4.706328 3.236952 -6.253032 20.264267 16.012875 11.237601 5.406654 -14.233193 -9.902623 16.498470 20.810619 -16.029562 0.000000 0.000000 0.000000 10.482573 -8.511680 17.446299 7.439521 -4.496789 1.785876 12.606201 -9.914589 2.369644 8.647410 -3.307333 7.176097 0.594762 3.049653 3.815826 -0.477300 4.595424 2.175196 0.000000 0.000000 0.000000 4.141693 -6.969974 -0.555784 -16.363400 9.688836 7.282926 -1.274504 8.359025 3.952809 19.078417 -24.508028 13.625092 -48.440289 21.887341 10.702282 -34.358440 26.778400 1.853853 0.217664 -0.011256 -0.639197 -0.068977 -0.003304 0.202526 
-16.815439 0.023319 2.722679 -5.295017 3.173526 14.702525 0.000000 0.000000 0.000000 21.502930 -18.555920 7.327231 -6.947500 23.011978 -1.066386 -3.328460 -16.174168 4.759085 4.125421 -14.862012 1.163532 0.000000 0.000000 0.000000 -2.819933 1.066573 5.816652 4.775129 -3.258428 15.813577 -6.438391 -17.580103 -8.221203 -6.452200 -7.009676 -2.318369 0.000000 0.000000 0.000000 -4.876676 -1.795812 1.691810 0.000000 0.000000 0.000000 3.433282 4.959764 0.589432 5.940386 -17.056185 -8.279609 -2.050236 10.753860 -7.098035 0.000000 0.000000 0.000000 0.000000 0.000000 0.000000 0.000000 0.000000 0.000000 0.000000 0.000000 0.000000 0.000000 0.000000 0.000000 0.002091 18.987074 -0.000350 0.000000 16.984816 0.000000 0.000000 5.997237 0.000000 -0.003221 -13.991744 -0.001883 0.000000 0.000000 0.000000 0.000000 0.000000 0.000000 8.013739 -0.496760 -6.600246 -8.472443 60.853134 46.829128 -3.085723 10.734285 47.571564 -14.048884 -15.875971 36.933002 -9.861586 -9.005094 17.956144 -1.525802 -15.033131 22.983109 8.068763 -0.783004 31.901537 0.000000 0.000000 0.000000 -28.890047 -15.980891 -20.465111 -5.700453 -4.600905 -0.065375 -1.131917 0.273560 -0.883726 -22.313778 -9.255161 -10.734056 -5.559982 0.110174 -4.284014 1.861500 4.995881 -1.570891 0.000000 0.000000 0.000000 -28.354834 -12.105115 -10.680453 -0.813050 3.554334 -6.685229 6.745386 8.423923 -0.413228 -45.581360 -21.729128 -25.641954 1.602029 6.855870 -7.058529 17.969494 9.589427 1.881761 -17.670898 0.534472 1.303425 -42.122559 32.290417 -13.831261 0.099131 -9.472809 13.091444 -4.345226 3.007659 -5.839767 20.264267 16.012875 11.237601 5.406654 -14.233193 -9.902623 16.498470 20.810619 -16.029562 0.000000 0.000000 0.000000 10.482573 -8.511680 17.446299 7.448856 -4.502034 1.785228 12.606201 -9.914589 2.369644 8.647410 -3.307333 7.176097 0.594762 3.049653 3.815826 -0.477300 4.595424 2.175196 0.000000 0.000000 0.000000 4.201928 -6.989384 -0.546663 -16.381323 9.696258 7.284661 -1.274504 8.359025 3.952809 19.080265 -24.507462 13.625810 -48.465290 21.906425 10.696287 -34.309429 26.754583 1.844877 0.217841 -0.011267 -0.639718 -0.067245 -0.003218 0.197438 
